<svg width="512" height="512" viewBox="0 0 512 512" fill="none" xmlns="http://www.w3.org/2000/svg">
<rect x="0" width="512" height="512" rx="64" fill="#6AC1FF"/>
<path d="M82 199.1L291.4 199.1L291.4 298.1C291.4 311.1 288.6 322.3 283 331.7C277.4 341.3 269.5 348.7 259.3 353.9C249.3 359.1 237.7 361.7 224.5 361.7C211.3 361.7 199.7 359.1 189.7 353.9C179.7 348.7 171.8 341.3 166 331.7C160.4 322.3 157.6 311.1 157.6 298.1L157.6 244.7L82 244.7L82 199.1ZM197.2 244.7L197.2 292.7C197.2 297.3 198 301.2 199.6 304.4C201.2 307.6 203.5 310.1 206.5 311.9C209.7 313.7 213.5 314.6 217.9 314.6L231.1 314.6C235.7 314.6 239.5 313.7 242.5 311.9C245.5 310.1 247.8 307.6 249.4 304.4C251 301.2 251.8 297.3 251.8 292.7L251.8 244.7L197.2 244.7Z" fill="#222831"/>
<path d="M291 199.1L500.4 199.1L500.4 298.1C500.4 311.1 497.6 322.3 492 331.7C486.4 341.3 478.5 348.7 468.3 353.9C458.3 359.1 446.7 361.7 433.5 361.7C420.3 361.7 408.7 359.1 398.7 353.9C388.7 348.7 380.8 341.3 375 331.7C369.4 322.3 366.6 311.1 366.6 298.1L366.6 244.7L291 244.7L291 199.1ZM406.2 244.7L406.2 292.7C406.2 297.3 407 301.2 408.6 304.4C410.2 307.6 412.5 310.1 415.5 311.9C418.7 313.7 422.5 314.6 426.9 314.6L440.1 314.6C444.7 314.6 448.5 313.7 451.5 311.9C454.5 310.1 456.8 307.6 458.4 304.4C460 301.2 460.8 297.3 460.8 292.7L460.8 244.7L406.2 244.7Z" fill="#222831"/>
</svg>
